<?xml version="1.0" standalone="no"?>
<!DOCTYPE svg PUBLIC "-//W3C//DTD SVG 20010904//EN"
 "http://www.w3.org/TR/2001/REC-SVG-20010904/DTD/svg10.dtd">
<svg version="1.0" xmlns="http://www.w3.org/2000/svg"
 width="300.000000pt" height="255.000000pt" viewBox="0 0 300.000000 255.000000"
 preserveAspectRatio="xMidYMid meet">
<metadata>
Created by potrace 1.10, written by Peter Selinger 2001-2011
</metadata>
<g transform="translate(0.000000,255.000000) scale(0.100000,-0.100000)"
fill="#000000" stroke="none">
<path d="M1464 2448 l-9 -43 -54 -5 -54 -5 42 -23 c46 -26 47 -28 26 -79 -8
-20 -14 -38 -12 -39 2 -2 20 10 40 27 l37 31 36 -32 c20 -17 38 -29 40 -27 3
3 -3 23 -12 46 -9 23 -15 43 -13 45 2 2 22 15 44 29 l40 27 -47 0 c-38 0 -46
-3 -42 -15 4 -8 2 -21 -4 -28 -10 -11 -12 -18 -12 -34 0 -5 -10 -8 -22 -9 -13
0 -30 -4 -38 -8 -12 -5 -16 2 -16 34 -1 35 3 42 33 61 27 17 33 26 29 43 -3
11 -6 27 -6 34 0 29 -18 9 -26 -30z"/>
<path d="M1105 2432 c-9 -6 -41 -49 -59 -80 -15 -25 30 5 58 39 33 39 34 65 1
41z"/>
<path d="M1830 2429 c0 -16 75 -89 91 -89 7 0 2 11 -13 28 -14 15 -31 37 -37
50 -12 23 -41 31 -41 11z"/>
<path d="M1014 2401 c-18 -11 -40 -38 -50 -60 -10 -23 -21 -41 -25 -41 -4 0
-16 -3 -26 -7 -17 -6 -17 -5 -1 13 10 11 24 37 33 58 15 36 15 38 0 32 -9 -3
-19 -6 -21 -6 -3 0 -3 -4 0 -9 11 -18 -52 -97 -103 -129 -40 -25 -52 -28 -46
-15 23 54 13 62 -15 13 -28 -50 -109 -144 -117 -136 -2 2 1 16 7 31 17 46 3
40 -18 -7 -10 -24 -26 -49 -35 -57 -10 -7 -17 -20 -17 -27 0 -8 -12 -32 -26
-54 -28 -42 -42 -54 -24 -21 5 11 10 26 10 33 -1 7 -7 -1 -14 -18 -8 -18 -19
-35 -25 -38 -5 -4 -8 -13 -5 -20 8 -21 -33 -94 -56 -101 -21 -7 -26 -20 -11
-30 11 -6 -11 -79 -30 -101 -6 -7 -18 -10 -27 -6 -15 5 -15 3 1 -21 31 -47 -3
-146 -39 -116 -9 7 -14 8 -14 1 0 -6 11 -19 25 -30 19 -15 25 -29 25 -58 0
-52 -11 -68 -41 -59 -24 8 -24 7 -5 -13 10 -12 27 -24 37 -27 10 -3 19 -16 21
-28 2 -12 4 23 4 78 0 190 14 246 77 313 38 39 25 43 -16 5 l-28 -28 10 28
c11 28 41 75 76 116 18 21 18 23 2 18 -15 -6 -16 -4 -6 16 7 12 17 27 23 32
23 21 60 68 49 61 -7 -4 -13 -3 -13 2 0 12 44 52 57 52 13 0 26 47 17 62 -4 6
-3 8 3 5 6 -4 19 3 29 14 13 15 25 18 47 13 28 -6 29 -5 25 21 -5 22 1 30 31
51 36 23 39 24 70 8 18 -9 35 -13 38 -10 4 3 1 6 -6 6 -8 0 -11 6 -7 17 4 9 2
20 -5 23 -15 10 76 45 93 36 7 -3 24 -14 38 -23 23 -17 24 -17 17 0 -4 10 -2
27 3 38 10 17 8 18 -15 9 -40 -15 -31 12 21 64 49 49 48 58 -2 27z"/>
<path d="M1920 2406 c0 -2 16 -21 35 -42 39 -42 44 -59 17 -52 -15 4 -18 -1
-18 -28 0 -27 3 -31 16 -24 9 5 22 16 29 24 18 21 -2 79 -36 106 -23 18 -43
26 -43 16z"/>
<path d="M2015 2363 c9 -21 23 -46 33 -56 16 -19 16 -19 -8 -13 -14 3 -2 -5
25 -18 28 -13 46 -25 40 -25 -5 -1 -10 -12 -10 -25 0 -24 14 -25 43 -3 20 15
89 -35 88 -65 -1 -19 3 -23 25 -20 16 1 33 -6 44 -18 10 -11 22 -17 28 -13 6
3 7 1 3 -5 -10 -17 4 -62 21 -62 18 0 52 -39 53 -61 0 -9 11 -28 25 -43 13
-15 29 -35 35 -46 9 -17 8 -19 -7 -13 -17 7 -10 -4 48 -75 6 -7 17 -29 26 -50
l15 -37 -31 29 c-41 40 -39 24 3 -26 33 -38 66 -131 52 -145 -3 -4 -6 0 -6 8
0 18 -36 59 -51 59 -6 0 7 -21 27 -46 36 -43 38 -50 42 -130 3 -46 1 -84 -4
-84 -12 0 -84 100 -84 116 0 26 19 14 46 -26 29 -44 40 -47 25 -8 -11 28 -56
68 -77 68 -33 0 6 -103 52 -139 16 -12 32 -32 36 -44 l6 -22 1 22 c1 12 9 24
20 28 10 3 27 15 37 26 18 20 18 20 -7 14 -22 -5 -27 -2 -33 17 -10 41 -7 86
8 91 8 3 20 16 27 29 11 21 11 22 -4 10 -23 -19 -33 -9 -46 43 -10 38 -9 49 5
70 15 24 15 25 -3 25 -19 0 -27 12 -51 71 -7 18 -7 30 0 37 13 13 2 32 -17 32
-18 0 -58 77 -51 97 3 8 -3 26 -14 40 -11 14 -20 32 -20 39 0 7 -4 15 -9 19
-10 5 1 -44 14 -65 3 -5 4 -10 2 -10 -8 0 -57 80 -57 94 0 7 -7 20 -16 27 -9
7 -27 36 -40 64 -22 45 -26 31 -7 -22 10 -28 -72 58 -106 112 -17 27 -31 56
-31 64 0 21 47 -25 71 -69 13 -26 18 -30 18 -15 1 35 -66 115 -97 115 -13 0 2
-75 19 -97 9 -11 -7 -5 -41 14 -53 30 -126 115 -115 133 4 7 -17 20 -31 20 -2
0 3 -17 11 -37z"/>
<path d="M863 2355 c-31 -25 -61 -85 -42 -85 5 0 9 4 9 8 0 5 16 27 36 51 43
49 41 60 -3 26z"/>
<path d="M1097 2352 c-28 -17 -31 -33 -6 -40 11 -3 11 -2 -1 7 -13 9 -12 11 5
11 11 0 31 9 45 20 23 18 23 20 5 20 -11 -1 -32 -8 -48 -18z"/>
<path d="M1196 2356 c4 -9 -6 -20 -25 -31 -40 -20 -40 -29 0 -21 44 9 95 46
77 57 -22 15 -58 11 -52 -5z"/>
<path d="M1712 2361 c-18 -11 33 -48 77 -57 40 -8 40 1 0 21 -19 11 -29 22
-25 31 6 16 -30 20 -52 5z"/>
<path d="M1828 2350 c18 -11 38 -20 45 -20 8 0 7 -4 -3 -11 -12 -9 -12 -10 -1
-7 8 3 16 9 18 14 4 12 -49 44 -74 44 -13 0 -9 -6 15 -20z"/>
<path d="M2070 2363 c1 -4 19 -28 41 -53 36 -41 39 -42 29 -15 -6 16 -16 35
-22 43 -15 17 -48 35 -48 25z"/>
<path d="M750 2307 c-36 -31 -60 -68 -60 -90 0 -13 11 -3 33 29 17 27 42 53
55 59 12 5 22 13 22 17 0 15 -25 7 -50 -15z"/>
<path d="M1082 2274 c2 -13 -4 -20 -20 -22 -38 -6 -13 -22 34 -22 47 0 54 8
27 32 -33 28 -45 31 -41 12z"/>
<path d="M1835 2258 c-15 -23 -15 -23 26 -26 23 -2 47 2 52 7 8 8 5 11 -11 11
-13 0 -22 6 -22 15 0 23 -27 18 -45 -7z"/>
<path d="M628 2223 c-31 -34 -61 -90 -55 -106 2 -7 11 2 20 19 9 18 28 46 42
63 34 40 28 61 -7 24z"/>
<path d="M943 2236 c5 -12 -1 -20 -21 -28 l-27 -12 29 -4 c35 -4 76 5 76 18 0
5 -14 17 -31 26 -30 15 -31 15 -26 0z"/>
<path d="M1988 2234 c-16 -8 -28 -19 -28 -24 0 -13 41 -22 76 -18 l29 4 -27
12 c-19 8 -26 16 -22 27 7 18 6 18 -28 -1z"/>
<path d="M2300 2238 c0 -8 9 -23 21 -34 12 -10 30 -37 42 -59 24 -48 36 -31
12 18 -20 43 -75 98 -75 75z"/>
<path d="M826 2165 c4 -9 0 -15 -9 -15 -8 0 -20 -7 -27 -15 -15 -18 -12 -18
46 -4 48 12 55 23 25 39 -28 14 -41 12 -35 -5z"/>
<path d="M2098 2169 c-28 -16 -21 -26 26 -38 58 -14 61 -14 46 4 -7 8 -19 15
-27 15 -9 0 -13 6 -9 15 6 17 -11 19 -36 4z"/>
<path d="M1275 2127 c-102 -39 -101 -37 -59 -85 39 -46 54 -46 54 -3 0 20 7
31 25 39 14 6 25 16 25 21 0 5 10 11 22 13 28 4 38 38 11 37 -10 0 -45 -10
-78 -22z"/>
<path d="M1573 2135 c-12 -8 -31 -31 -43 -50 -12 -19 -28 -35 -35 -35 -7 0
-16 -8 -19 -17 -8 -19 8 -40 18 -24 11 18 26 13 26 -9 0 -11 4 -20 9 -20 10 0
21 24 21 48 0 9 9 28 19 41 14 18 20 21 26 11 5 -8 2 -18 -8 -25 -31 -23 -21
-41 15 -27 14 6 15 11 3 45 -12 34 -11 38 3 35 10 -2 18 -13 20 -25 6 -38 25
-46 71 -27 40 16 41 16 88 -12 63 -36 153 -129 192 -197 35 -61 64 -137 56
-146 -3 -3 -19 3 -35 13 -29 17 -31 17 -59 -3 -16 -12 -31 -21 -34 -21 -3 0
-19 14 -37 30 -18 17 -43 30 -55 30 -13 0 -36 5 -50 10 -20 7 -26 7 -23 -1 2
-7 26 -19 53 -28 58 -18 69 -27 78 -62 8 -32 45 -75 55 -64 4 4 1 10 -5 12
-22 8 -14 38 18 66 37 32 49 34 49 6 0 -11 4 -17 10 -14 5 3 12 -7 16 -22 3
-15 7 -33 9 -40 2 -6 -1 -14 -8 -16 -7 -2 -9 -8 -5 -12 4 -4 14 -1 22 7 10 11
12 18 4 26 -6 6 -8 16 -6 22 3 9 9 8 21 -4 16 -16 18 -16 23 -1 9 24 -41 169
-81 235 -40 66 -141 165 -208 205 -47 27 -50 27 -83 12 -19 -9 -34 -21 -34
-27 0 -18 -18 -11 -23 10 -4 16 0 20 19 20 31 0 31 18 -1 26 -13 3 -29 12 -36
20 -15 18 -29 18 -56 -1z"/>
<path d="M502 2091 c-12 -21 -22 -52 -21 -67 0 -28 0 -29 10 -5 5 13 18 36 29
51 20 29 27 60 12 60 -5 0 -18 -17 -30 -39z"/>
<path d="M2420 2115 c0 -8 11 -31 25 -51 14 -20 25 -44 25 -52 0 -12 3 -13 11
-5 9 9 5 26 -15 67 -27 54 -46 72 -46 41z"/>
<path d="M720 2086 c0 -7 -10 -21 -22 -29 -20 -14 -21 -16 -5 -16 22 -1 77 26
77 38 0 9 -24 21 -41 21 -5 0 -9 -6 -9 -14z"/>
<path d="M2203 2093 c-30 -12 -2 -36 61 -54 l31 -8 -27 22 c-16 13 -28 28 -28
35 0 12 -15 14 -37 5z"/>
<path d="M1357 2073 c7 -18 48 -16 63 2 10 13 7 14 -28 12 -27 -1 -38 -6 -35
-14z"/>
<path d="M1061 1996 c-16 -17 -21 -31 -16 -45 7 -22 -10 -30 -19 -8 -11 26
-97 -106 -131 -202 -17 -48 -6 -65 48 -75 19 -3 44 -17 56 -30 13 -14 29 -22
37 -19 17 6 18 -11 4 -38 -10 -18 -7 -19 45 -19 31 0 90 -7 131 -16 83 -17
108 -13 47 6 -21 7 -49 22 -63 34 -46 39 -75 50 -130 51 -39 0 -54 4 -52 13 1
7 -5 15 -13 18 -8 4 -15 13 -15 21 0 13 -3 13 -15 3 -23 -19 -45 -4 -45 30 0
22 5 30 18 30 9 0 27 3 39 6 18 5 25 1 32 -17 9 -23 10 -22 10 9 1 17 6 32 11
32 6 0 10 9 10 20 0 11 9 25 20 32 11 7 20 18 20 25 0 13 12 17 37 14 6 -1 14
3 18 9 3 5 -1 10 -9 10 -9 0 -16 5 -16 10 0 19 -48 -20 -76 -63 -35 -51 -42
-57 -71 -57 -14 0 -23 6 -23 16 0 25 68 121 90 127 11 3 24 17 30 31 10 27 34
35 45 15 4 -5 0 -18 -7 -27 -27 -31 -33 -49 -11 -29 11 9 31 17 46 17 34 0 41
13 16 30 -10 8 -19 22 -19 32 0 9 -4 20 -10 23 -5 3 -10 1 -10 -4 0 -14 -27
-14 -32 0 -2 5 -14 -1 -27 -15z"/>
<path d="M1404 2006 c-4 -10 -2 -21 4 -25 12 -7 11 -29 -2 -50 -7 -10 -3 -12
15 -6 33 10 33 10 19 47 -18 45 -28 55 -36 34z"/>
<path d="M1578 1989 c-9 -12 -31 -22 -51 -24 -20 -2 -45 -14 -60 -29 -14 -14
-32 -26 -39 -26 -9 0 -9 -3 0 -12 22 -22 14 -41 -13 -34 -23 6 -25 3 -25 -24
0 -28 3 -31 27 -28 19 2 32 12 41 31 16 32 35 34 63 6 17 -17 19 -23 8 -30 -8
-5 -9 -9 -3 -9 5 0 16 6 23 13 11 10 14 10 18 0 3 -7 9 -13 15 -13 6 0 8 7 4
15 -3 8 1 18 8 22 7 5 17 17 23 27 12 22 65 33 57 12 -3 -8 2 -16 11 -20 27
-10 8 -23 -35 -23 -47 0 -53 -4 -44 -26 4 -12 13 -15 30 -11 28 7 33 -16 8
-37 -12 -10 -22 -10 -44 -2 -18 7 -32 7 -38 1 -12 -12 -52 11 -52 31 0 10 -9
12 -32 7 -18 -4 -42 -8 -53 -10 -11 -1 -25 -12 -30 -23 -6 -12 -16 -27 -23
-35 -6 -8 -14 -32 -18 -52 -5 -32 -1 -43 21 -66 23 -25 31 -27 58 -19 17 5 39
6 49 3 17 -5 38 -60 38 -100 0 -18 8 -22 46 -28 106 -14 135 -5 114 34 -10 18
-5 28 30 70 36 43 39 50 22 50 -21 0 -82 73 -82 97 0 26 17 12 38 -33 19 -39
25 -44 45 -38 55 17 84 59 40 59 -11 0 -27 6 -36 14 -15 12 -16 10 -10 -20 6
-31 5 -33 -10 -20 -9 7 -17 19 -17 26 0 7 -7 18 -15 25 -16 13 -10 62 12 96
11 17 11 27 2 48 -15 33 -67 36 -94 6 -20 -22 -45 -27 -45 -8 0 9 -3 9 -12 0
-9 -9 -8 -15 8 -27 22 -17 12 -20 -17 -5 -10 6 -19 17 -19 25 0 9 -10 15 -25
15 -14 0 -25 4 -25 8 0 15 36 42 55 42 23 0 81 36 89 55 8 22 -17 18 -36 -6z
m-69 -226 c13 -9 44 -18 69 -19 48 -4 55 -7 58 -29 1 -7 16 -34 33 -59 l31
-45 -25 -38 c-15 -20 -24 -45 -22 -55 5 -16 -2 -18 -49 -18 l-53 0 -12 43
c-16 61 -44 87 -94 87 -22 0 -46 5 -53 12 -24 24 -11 73 33 125 14 18 57 16
84 -4z"/>
<path d="M415 1966 c-8 -19 -15 -50 -14 -68 l1 -33 15 43 c8 23 19 42 24 42
12 0 11 37 -1 45 -6 4 -17 -9 -25 -29z"/>
<path d="M612 1964 c-19 -19 -28 -34 -20 -34 18 0 88 48 88 60 0 20 -36 6 -68
-26z"/>
<path d="M2280 1990 c0 -11 70 -60 86 -60 6 0 -3 16 -22 35 -31 33 -64 46 -64
25z"/>
<path d="M2517 1993 c-12 -11 -8 -40 8 -53 8 -7 19 -27 24 -44 l9 -31 1 38 c1
21 -6 51 -14 67 -17 32 -18 33 -28 23z"/>
<path d="M547 1855 c-21 -25 -33 -45 -28 -45 17 0 91 71 85 81 -9 16 -19 10
-57 -36z"/>
<path d="M2356 1891 c-6 -10 68 -81 85 -81 5 0 -7 20 -28 45 -38 46 -48 52
-57 36z"/>
<path d="M345 1828 c-4 -19 -5 -50 -3 -69 l4 -34 8 30 c4 17 13 40 19 53 8 18
7 26 -5 39 -15 15 -17 13 -23 -19z"/>
<path d="M2591 1846 c-11 -13 -11 -22 -3 -39 6 -12 15 -35 20 -52 10 -28 10
-27 11 20 0 28 -4 58 -8 68 -6 17 -8 18 -20 3z"/>
<path d="M513 1763 c-4 -10 -18 -33 -31 -50 -13 -18 -20 -33 -14 -33 12 0 82
79 82 92 0 16 -31 8 -37 -9z"/>
<path d="M2424 1751 c17 -32 75 -85 84 -76 3 3 -6 18 -20 33 -14 15 -31 37
-37 50 -6 12 -18 22 -27 22 -13 0 -13 -3 0 -29z"/>
<path d="M300 1646 c0 -30 5 -58 10 -61 6 -4 10 8 10 29 0 27 4 36 16 36 15 0
15 2 2 22 -27 41 -38 33 -38 -26z"/>
<path d="M2626 1675 c-14 -22 -15 -25 -1 -25 10 0 15 -10 15 -30 0 -16 5 -30
10 -30 6 0 10 25 10 55 0 60 -9 68 -34 30z"/>
<path d="M472 1618 c-10 -24 -26 -49 -35 -57 -26 -21 -20 -33 8 -15 21 13 65
86 65 107 0 22 -22 1 -38 -35z"/>
<path d="M2450 1655 c0 -19 31 -74 55 -97 39 -39 53 -35 19 5 -15 17 -33 47
-41 65 -11 27 -33 45 -33 27z"/>
<path d="M426 1621 c-16 -16 -27 -34 -25 -40 2 -5 19 8 37 29 38 46 29 54 -12
11z"/>
<path d="M2055 1561 c-26 -30 -166 -97 -240 -116 -106 -27 -237 -20 -450 24
-228 47 -326 57 -419 41 -38 -6 -73 -13 -76 -15 -4 -3 -3 -27 3 -55 9 -47 11
-49 36 -42 14 4 85 7 156 6 112 -1 153 -6 295 -38 200 -46 323 -55 430 -32 77
16 213 78 263 119 25 21 28 29 25 76 l-3 53 -20 -21z m-5 -60 c0 -34 -141
-117 -240 -142 -102 -25 -255 -16 -440 26 -143 33 -185 38 -315 41 -147 3
-150 4 -150 25 0 17 8 25 35 32 65 17 245 1 417 -37 298 -66 443 -58 621 33
62 33 72 36 72 22z"/>
<path d="M283 1494 c6 -56 30 -89 25 -34 -2 24 1 34 10 33 18 -4 15 11 -6 30
-29 26 -35 20 -29 -29z"/>
<path d="M2647 1522 c-20 -22 -22 -33 -4 -29 8 1 12 -10 11 -33 -2 -31 -1 -32
12 -15 8 10 14 29 14 41 0 12 3 29 6 38 9 22 -19 21 -39 -2z"/>
<path d="M436 1509 c-25 -20 -52 -67 -43 -76 2 -2 16 14 31 36 15 22 34 42 42
45 20 8 -7 -56 -41 -96 -30 -35 -25 -50 6 -22 26 23 44 58 54 102 8 39 -9 43
-49 11z"/>
<path d="M700 1391 c0 -49 6 -68 35 -117 19 -32 41 -63 47 -69 9 -7 9 -6 0 6
-7 9 -15 37 -18 63 -4 25 -12 46 -17 46 -7 0 -7 4 1 12 15 15 16 72 2 99 -6
10 -20 19 -30 19 -18 0 -20 -7 -20 -59z"/>
<path d="M2203 1438 c-6 -7 -13 -58 -16 -112 l-7 -100 35 54 c30 46 35 63 35
112 0 50 -3 58 -19 58 -10 0 -23 -6 -28 -12z"/>
<path d="M2036 1415 c-38 -31 -140 -80 -196 -95 -129 -36 -251 -30 -480 20
-187 41 -289 53 -376 45 -96 -9 -100 -13 -77 -64 l18 -42 135 -3 c113 -3 162
-9 300 -40 282 -64 419 -59 587 24 80 39 82 41 103 97 27 73 24 88 -14 58z
m-765 -81 c68 -14 156 -33 194 -41 99 -22 283 -21 365 1 36 10 70 19 75 20 6
1 24 10 42 19 63 34 86 15 31 -26 -78 -57 -207 -96 -319 -97 -69 0 -200 22
-334 56 -71 19 -138 27 -232 31 -72 3 -137 9 -143 13 -7 4 -9 16 -5 29 6 20
13 21 104 21 68 0 137 -8 222 -26z"/>
<path d="M777 1383 c-11 -101 20 -224 37 -142 3 17 3 35 0 40 -3 5 0 34 7 64
10 43 9 57 -1 70 -23 27 -37 17 -43 -32z"/>
<path d="M2131 1416 c-14 -17 -1 -202 14 -199 16 3 23 42 24 131 1 63 -2 82
-13 82 -7 0 -19 -6 -25 -14z"/>
<path d="M457 1390 c-26 -21 -53 -80 -36 -80 5 0 9 4 9 9 0 5 16 26 35 47 19
21 35 39 35 41 0 9 -20 1 -43 -17z"/>
<path d="M2466 1398 c5 -7 18 -21 30 -31 13 -10 26 -26 29 -37 4 -11 10 -20
15 -20 14 0 -8 51 -32 78 -23 23 -55 31 -42 10z"/>
<path d="M280 1365 c0 -16 37 -95 45 -95 2 0 -1 15 -6 32 -12 42 -12 40 11 33
30 -9 24 8 -9 28 -36 21 -41 21 -41 2z"/>
<path d="M2633 1355 c-24 -22 -25 -25 -8 -23 17 3 20 -2 17 -27 l-2 -30 19 35
c22 38 27 70 12 70 -6 0 -23 -11 -38 -25z"/>
<path d="M623 1363 c-19 -7 -16 -18 21 -98 19 -39 38 -84 42 -99 3 -15 28 -50
53 -79 26 -29 58 -71 71 -94 14 -25 49 -61 87 -89 79 -58 130 -116 145 -166
13 -44 28 -50 28 -10 0 42 -54 118 -122 170 -80 61 -104 86 -124 125 -9 18
-36 53 -59 79 -38 42 -114 198 -97 198 7 0 62 -74 62 -83 0 -3 25 -41 56 -84
54 -76 138 -163 158 -163 10 0 -18 35 -50 62 -12 9 -41 45 -65 79 -24 33 -51
68 -59 78 -9 9 -21 27 -28 41 -43 89 -92 143 -119 133z"/>
<path d="M476 1340 c-5 -14 -19 -41 -32 -60 -30 -43 -31 -59 -3 -34 29 26 51
71 47 97 -4 21 -4 21 -12 -3z"/>
<path d="M836 1338 c-3 -13 -6 -42 -6 -64 0 -35 4 -43 22 -47 12 -4 23 -5 25
-4 4 5 -22 125 -28 132 -4 3 -9 -5 -13 -17z"/>
<path d="M2097 1350 c-10 -29 -29 -121 -25 -125 2 -2 14 -2 26 2 18 4 22 12
21 47 -1 53 -14 97 -22 76z"/>
<path d="M2278 1346 c-7 -8 -26 -38 -43 -66 -16 -28 -41 -67 -55 -85 -14 -19
-36 -51 -50 -71 -14 -21 -49 -61 -77 -90 -29 -29 -53 -55 -53 -58 0 -39 170
147 204 224 6 14 19 31 28 38 10 7 18 19 18 26 0 7 9 21 21 32 l21 19 -16 -30
c-9 -17 -25 -55 -36 -85 -11 -30 -38 -75 -60 -100 -23 -25 -50 -62 -61 -82
-10 -20 -40 -54 -66 -75 -94 -76 -135 -118 -154 -155 -20 -40 -25 -88 -9 -88
6 0 10 7 10 15 0 47 67 127 173 208 20 15 53 53 73 85 20 31 54 76 75 99 22
24 39 49 39 56 0 7 18 50 40 96 22 45 40 87 40 92 0 14 -47 11 -62 -5z"/>
<path d="M2470 1342 c0 -29 21 -71 49 -96 18 -16 21 -17 21 -3 0 9 -5 19 -10
22 -6 4 -21 27 -35 53 -19 37 -24 42 -25 24z"/>
<path d="M381 1282 c-1 -19 -5 -22 -21 -17 -33 11 -23 -15 13 -30 17 -7 33
-12 35 -11 1 2 -4 20 -12 42 -11 30 -15 33 -15 16z"/>
<path d="M2567 1278 c-4 -14 -10 -33 -13 -42 -5 -13 -2 -14 24 -5 17 6 36 17
43 25 11 13 9 14 -13 9 -22 -6 -27 -3 -30 17 -3 23 -4 22 -11 -4z"/>
<path d="M487 1261 c-18 -21 -27 -43 -26 -64 l1 -32 11 27 c7 14 20 35 31 46
10 11 16 28 14 38 -2 15 -8 12 -31 -15z"/>
<path d="M2440 1273 c0 -13 4 -23 9 -23 5 0 18 -19 30 -42 l21 -43 0 32 c0 22
-10 43 -30 65 -28 31 -29 32 -30 11z"/>
<path d="M1945 1233 c-79 -42 -178 -64 -290 -64 -85 0 -155 11 -385 60 -111
23 -263 36 -302 24 l-27 -8 34 -46 33 -46 93 -6 c52 -3 168 -22 259 -42 205
-46 316 -54 430 -31 80 16 88 19 129 64 46 49 97 120 90 125 -2 2 -31 -12 -64
-30z m-785 -13 c59 0 80 -3 70 -10 -17 -11 -14 -11 68 -14 23 0 46 -6 50 -12
4 -6 22 -10 40 -9 21 1 36 -4 39 -13 5 -11 7 -11 14 0 6 8 9 9 9 1 0 -6 16
-11 38 -10 54 1 101 -6 96 -14 -2 -4 25 -7 61 -7 36 1 68 5 71 10 3 4 10 8 15
8 6 0 7 -6 3 -12 -5 -8 -1 -7 10 2 10 8 40 14 70 15 39 0 50 3 48 14 -3 12 0
12 12 2 25 -21 -10 -50 -68 -58 -39 -5 -46 -8 -31 -14 17 -7 15 -8 -10 -9 -16
-1 -58 -2 -92 -4 -62 -2 -176 9 -138 14 19 2 -87 21 -202 36 -29 4 -53 11 -53
15 0 5 -30 9 -66 9 -36 0 -63 4 -60 9 3 5 -23 11 -59 13 -71 4 -81 9 -71 34 4
11 13 14 29 10 12 -3 60 -6 107 -6z"/>
<path d="M310 1216 c0 -14 30 -63 46 -77 16 -13 17 -12 10 6 -13 34 -12 40 9
37 18 -3 18 -2 5 12 -16 16 -70 33 -70 22z"/>
<path d="M514 1193 c-4 -16 -15 -39 -25 -54 -10 -14 -14 -30 -10 -38 9 -14 37
38 47 88 8 38 -3 41 -12 4z"/>
<path d="M2430 1199 c0 -34 41 -114 50 -98 5 7 0 28 -11 48 -10 20 -19 41 -19
48 0 6 -4 15 -10 18 -6 3 -10 -4 -10 -16z"/>
<path d="M2604 1210 c-29 -12 -42 -32 -18 -28 20 3 21 -3 8 -37 -7 -18 -6 -19
10 -6 16 13 46 62 46 76 0 7 -21 5 -46 -5z"/>
<path d="M813 1194 c-3 -8 -1 -25 5 -37 15 -33 152 -180 152 -163 0 7 -29 46
-65 86 -36 40 -65 79 -65 86 0 29 29 12 80 -46 43 -49 70 -69 145 -104 99 -48
140 -86 151 -141 3 -19 5 -84 2 -145 -2 -78 0 -111 9 -114 8 -3 13 21 18 81
10 114 2 203 -21 238 -23 35 -123 101 -167 111 -22 4 -55 31 -107 85 -59 61
-82 79 -103 79 -16 0 -30 -7 -34 -16z"/>
<path d="M2034 1169 c-76 -83 -100 -102 -169 -134 -81 -37 -129 -74 -152 -118
-17 -35 -22 -141 -9 -249 l7 -67 -38 -11 c-132 -37 -301 -34 -428 10 -70 24
-90 25 -50 2 l30 -17 -30 -3 c-31 -4 -54 -26 -55 -54 0 -10 -4 -18 -10 -18 -5
0 -10 -11 -10 -24 0 -14 -5 -37 -11 -53 -15 -40 -3 -92 24 -102 58 -22 62 -21
75 6 6 15 12 35 12 45 0 10 1 18 3 18 1 0 17 -4 35 -9 46 -14 43 12 -3 26 -39
12 -40 12 -49 -39 -4 -21 -11 -38 -15 -38 -15 0 -71 22 -71 28 0 6 52 195 55
199 1 2 25 -6 53 -17 29 -11 61 -20 71 -20 11 0 27 -7 35 -16 15 -14 16 -14
16 5 0 15 6 21 23 21 33 0 39 -9 22 -34 -11 -14 -15 -48 -15 -115 0 -125 17
-108 22 21 2 54 6 98 10 98 5 0 29 -15 55 -34 27 -18 63 -41 81 -50 l32 -17
69 70 c38 38 75 71 83 73 9 3 19 -24 36 -91 27 -115 43 -138 39 -59 -1 31 -5
54 -9 51 -5 -2 -8 2 -9 9 -4 64 -27 108 -56 108 -24 0 -13 21 20 36 l32 15
-30 -6 -30 -5 0 132 c0 78 5 144 12 159 14 33 86 91 133 109 61 23 114 61 155
111 37 46 70 68 82 56 7 -8 -25 -56 -73 -108 -69 -75 -71 -99 -3 -28 118 123
135 161 73 167 -26 3 -38 -4 -70 -39z m-360 -621 c-23 -39 -90 -98 -111 -98
-13 0 -23 5 -23 10 0 6 -6 10 -12 10 -7 0 -26 11 -43 25 -25 21 -28 26 -15 35
8 5 40 10 70 11 30 1 69 5 85 9 47 12 57 11 49 -2z"/>
<path d="M520 1113 c-18 -43 -36 -82 -40 -86 -4 -5 -27 -3 -51 4 -41 11 -42
13 -19 20 l25 7 -27 1 c-16 1 -28 -4 -28 -9 0 -6 -13 -4 -30 5 -16 8 -31 15
-34 15 -7 0 60 -154 110 -254 41 -80 111 -191 162 -255 l19 -23 32 41 33 41
-33 38 c-18 20 -59 77 -91 127 -32 49 -58 87 -58 84 0 -3 16 -52 35 -109 37
-109 42 -131 26 -114 -22 21 -150 295 -162 342 -7 31 -6 33 14 28 12 -3 26 -6
30 -6 5 0 5 -4 2 -10 -3 -5 0 -8 7 -6 7 3 25 7 41 10 15 4 27 12 27 19 0 6 11
25 24 42 l23 29 22 -42 c11 -22 21 -47 21 -54 0 -7 -25 -33 -55 -57 -30 -24
-55 -46 -55 -48 0 -7 21 7 80 53 39 30 66 44 92 46 50 3 57 -7 17 -28 -33 -17
-68 -54 -80 -83 -17 -43 36 -155 109 -228 40 -40 60 -41 94 -5 39 42 59 89 43
102 -7 6 -15 23 -18 38 -3 15 -19 43 -36 62 l-29 35 -46 -45 c-25 -24 -46 -50
-46 -57 0 -6 11 -24 24 -40 24 -27 24 -28 45 -9 16 15 18 22 10 33 -15 18 -33
17 -25 -2 3 -9 0 -15 -9 -15 -29 0 -28 41 1 71 15 16 33 29 41 29 15 0 63 -69
63 -90 -1 -9 -12 -2 -30 19 -16 19 -32 32 -35 29 -3 -3 12 -27 34 -53 l40 -48
-26 -34 c-14 -18 -27 -33 -30 -33 -40 0 -149 136 -159 200 -5 33 -2 38 46 79
49 41 54 43 75 30 36 -21 125 -148 125 -177 0 -19 3 -22 13 -13 10 8 18 7 32
-2 16 -13 15 -17 -18 -64 -78 -111 -84 -147 -34 -193 17 -16 35 -30 38 -30 3
0 14 16 25 35 21 39 23 40 49 21 17 -12 17 -15 3 -35 -22 -31 -11 -68 29 -92
32 -20 35 -20 53 -4 11 10 29 43 40 74 11 31 25 64 30 73 18 31 11 66 -16 87
-34 27 -52 26 -81 -1 -26 -24 -38 -20 -28 11 12 39 40 44 92 16 26 -14 52 -25
58 -25 5 0 -14 14 -44 30 -72 40 -148 98 -212 162 -51 52 -163 195 -171 219
-3 9 -16 4 -40 -15 l-37 -27 -21 48 c-12 26 -29 66 -37 88 -9 22 -19 43 -23
48 -3 4 -21 -28 -40 -70z m449 -477 c-21 -36 -21 -37 -3 -52 32 -25 54 -35 54
-26 0 5 7 26 15 45 l15 36 34 -22 c31 -20 33 -24 21 -47 -7 -14 -22 -56 -35
-95 -12 -38 -24 -71 -25 -73 -3 -4 -75 39 -75 44 0 3 9 23 19 44 l19 40 -35
21 c-19 12 -35 20 -37 18 -2 -2 -11 -19 -20 -36 -9 -18 -20 -33 -24 -33 -5 0
-20 13 -35 28 l-27 28 52 87 52 88 29 -29 28 -29 -22 -37z m-349 -17 c0 -20
-26 11 -35 41 l-7 25 21 -27 c11 -14 21 -32 21 -39z"/>
<path d="M2380 1182 c0 -20 -71 -182 -79 -182 -4 0 -18 11 -31 25 -13 14 -26
25 -30 25 -3 0 -25 -30 -49 -67 -73 -110 -186 -221 -317 -311 -17 -11 -17 -11
3 -2 21 10 25 5 64 -74 38 -78 43 -106 18 -106 -5 0 -21 26 -35 57 -29 66 -55
95 -74 83 -8 -5 -23 -4 -34 2 -18 10 -19 9 -8 -4 10 -13 9 -18 -3 -28 -16 -14
-20 -41 -7 -55 5 -6 17 -35 26 -66 33 -110 56 -120 151 -63 61 36 115 97 115
131 0 20 -54 128 -77 155 -16 18 -10 38 10 38 7 0 39 -41 72 -91 l59 -91 23
26 c28 33 29 46 2 80 -12 15 -20 29 -18 30 2 2 24 14 49 26 57 29 131 78 148
98 23 30 13 59 -37 108 -27 27 -47 52 -45 56 12 19 47 5 111 -43 l68 -50 -52
49 c-29 27 -53 54 -53 60 0 20 32 92 40 92 5 0 14 -13 21 -29 7 -16 16 -28 20
-25 4 2 10 -5 14 -16 3 -11 14 -20 23 -21 9 0 25 -2 35 -4 9 -2 15 1 11 6 -3
5 -1 9 5 9 5 0 16 3 25 6 13 5 16 -1 16 -25 0 -17 -4 -31 -10 -31 -5 0 -10 -8
-10 -17 0 -17 -8 -35 -44 -100 -8 -15 -34 -66 -56 -113 -23 -47 -46 -89 -51
-95 -10 -11 12 70 47 165 13 35 22 66 20 68 -2 2 -21 -25 -42 -59 -20 -34 -59
-91 -86 -126 l-49 -63 28 -40 c15 -22 30 -40 33 -40 9 0 107 142 151 219 38
67 117 237 134 291 6 19 4 20 -12 12 -10 -5 -34 -8 -53 -6 -26 3 -30 2 -15 -5
17 -7 15 -10 -20 -20 -22 -6 -44 -11 -50 -11 -5 0 -22 31 -38 68 -28 72 -56
117 -57 94z m-87 -262 c36 -30 66 -60 66 -66 1 -17 -62 -62 -148 -107 -42 -21
-78 -41 -80 -42 -2 -2 11 -22 29 -45 26 -33 30 -43 20 -55 -7 -8 -16 -15 -20
-15 -14 0 -113 161 -104 169 5 4 32 16 59 26 40 15 131 63 155 83 3 2 -12 19
-33 38 -28 26 -36 40 -32 55 8 25 8 25 88 -41z m-74 -24 l23 -25 -43 -22 c-51
-26 -102 -41 -97 -30 5 14 81 101 88 101 4 0 17 -11 29 -24z m-185 -272 c38
-74 38 -77 23 -108 -24 -52 -145 -124 -183 -109 -12 4 -71 172 -62 177 62 39
57 39 68 9 36 -99 54 -133 68 -133 17 0 52 28 52 41 0 5 -16 41 -35 81 l-35
72 27 23 c16 12 30 22 33 23 3 0 23 -34 44 -76z"/>
<path d="M426 1136 c7 -28 6 -29 -22 -22 -27 6 -28 5 -10 -9 11 -8 33 -15 48
-15 31 0 30 10 -6 55 -16 19 -16 19 -10 -9z"/>
<path d="M2511 1125 l-20 -35 27 0 c16 0 37 7 48 16 18 15 18 15 -10 9 -26 -6
-28 -4 -22 20 9 34 2 31 -23 -10z"/>
<path d="M1064 1098 c63 -55 157 -108 231 -131 100 -31 262 -31 358 1 66 22
182 81 174 88 -2 2 -19 -1 -38 -6 -76 -22 -226 -12 -424 29 -104 22 -224 42
-265 46 l-75 6 39 -33z m186 -26 c41 -10 85 -17 97 -16 12 1 24 -5 27 -12 4
-9 20 -14 48 -13 24 1 56 -4 71 -10 16 -6 39 -11 53 -11 15 0 24 -6 24 -15 0
-12 -15 -15 -78 -15 -43 0 -105 5 -138 11 -67 12 -208 75 -199 90 8 12 7 12
95 -9z"/>
<path d="M689 601 c17 -31 159 -157 233 -206 94 -63 203 -112 317 -142 139
-36 334 -36 474 0 180 48 341 143 491 291 50 50 66 71 55 74 -10 2 -53 -32
-105 -83 -91 -88 -191 -161 -254 -185 -19 -7 -56 -24 -82 -37 -62 -30 -176
-52 -308 -60 -103 -5 -119 -3 -315 37 -58 12 -190 77 -265 129 -35 25 -96 77
-136 114 -39 38 -77 73 -85 78 -23 14 -30 10 -20 -10z"/>
<path d="M1228 485 c-4 -31 -1 -35 27 -41 16 -3 37 -11 45 -18 13 -9 13 -9 2
6 -8 10 -22 20 -32 23 -10 3 -21 13 -24 21 -5 13 -1 15 16 11 13 -3 36 -9 52
-13 36 -9 32 17 -5 26 -81 22 -77 23 -81 -15z"/>
<path d="M1630 394 l-55 -53 -40 23 c-22 12 -52 30 -67 40 l-28 18 0 -66 c0
-64 -1 -66 -25 -66 -14 0 -25 -4 -25 -10 0 -5 10 -10 23 -10 31 0 52 39 44 79
-4 17 -4 31 -2 31 3 0 30 -14 60 -31 l55 -31 38 31 c22 17 45 37 52 46 18 21
30 19 30 -7 0 -29 22 -88 32 -88 5 0 25 7 46 16 42 18 27 31 -18 16 -16 -6
-31 -8 -34 -4 -2 4 -7 33 -11 65 -4 31 -10 56 -14 56 -3 -1 -31 -26 -61 -55z"/>
</g>
</svg>
